<svg xmlns="http://www.w3.org/2000/svg" height="48" viewBox="0 96 960 960" width="48" filter= "invert(6%) sepia(9%) saturate(5484%) hue-rotate(115deg) brightness(94%) contrast(94%)"><path d="M479.973 572.391q-68.201 0-110.826-42.603t-42.625-110.804q0-68.202 42.603-110.876 42.603-42.674 110.804-42.674t110.995 42.652q42.794 42.652 42.794 110.853 0 68.202-42.772 110.827-42.771 42.625-110.973 42.625ZM158.522 898.587V801.18q0-39.304 19.665-67.166 19.665-27.862 50.864-42.318 66.797-29.566 128.004-44.685 61.208-15.12 122.881-15.12 62.131 0 122.793 15.37 60.662 15.369 127.3 44.792 32.404 14.105 52.046 41.956 19.643 27.851 19.643 67.35v97.228H158.522Zm65.63-65.63h511.696v-30.742q0-16.163-9.75-30.691-9.75-14.529-23.25-21.459-63.044-29.782-114.739-41.043-51.695-11.261-108.097-11.261-56.273 0-108.914 11.261t-114.343 41.006q-14.103 6.932-23.353 21.545-9.25 14.613-9.25 30.752v30.632Zm255.799-326.196q38.092 0 62.995-24.866 24.902-24.865 24.902-62.974 0-38.207-24.854-63.031-24.853-24.825-62.945-24.825t-62.995 24.836q-24.902 24.835-24.902 62.902 0 38.165 24.854 63.061 24.853 24.897 62.945 24.897Zm.049-87.848Zm0 414.044Z"/></svg>