<svg xmlns="http://www.w3.org/2000/svg" height="48" viewBox="0 96 960 960" width="48"><path d="M225.846 797.87q62.871-43.022 123.382-65.783 60.511-22.761 130.876-22.761 70.365 0 131.242 22.945 60.876 22.944 124.197 65.599 44.022-54.74 61.913-108.302 17.892-53.562 17.892-113.467 0-142.964-96.23-239.207-96.23-96.242-239.076-96.242t-239.118 96.242q-96.272 96.243-96.272 239.207 0 59.884 18.278 113.389 18.279 53.505 62.916 108.38Zm254.023-191.196q-58.124 0-97.714-39.739-39.59-39.74-39.59-97.707 0-57.967 39.721-97.695 39.72-39.729 97.845-39.729 58.124 0 97.714 39.859 39.59 39.859 39.59 97.826 0 57.968-39.721 97.576-39.72 39.609-97.845 39.609Zm.209 370.304q-82.18 0-155.388-31.691-73.208-31.692-127.757-86.334-54.548-54.642-86.23-127.513-31.681-72.872-31.681-155.726 0-82.077 31.741-155.182 31.741-73.104 86.315-127.579 54.574-54.475 127.457-86.323 72.884-31.848 155.751-31.848 82.077 0 155.182 31.861 73.104 31.861 127.579 86.435 54.475 54.574 86.323 127.659 31.848 73.085 31.848 155.185 0 82.18-31.861 155.415-31.861 73.235-86.435 127.71-54.574 54.475-127.659 86.203-73.085 31.728-155.185 31.728Zm-.108-65.63q53.813 0 104.367-15.272t102.554-54.554q-52.239-35.761-103.034-53.913-50.794-18.152-103.797-18.152t-103.988 17.902q-50.985 17.902-102.724 54.163 52 39.282 102.405 54.554 50.404 15.272 104.217 15.272Zm.03-365.044q33.751 0 55.408-21.521 21.657-21.522 21.657-55.424t-21.657-55.544Q513.751 392.174 480 392.174q-33.751 0-55.408 21.641-21.657 21.642-21.657 55.544t21.657 55.424q21.657 21.521 55.408 21.521Zm0-77.065Zm.239 371.283Z"/></svg>