<?xml version="1.0" standalone="no"?>
<!DOCTYPE svg PUBLIC "-//W3C//DTD SVG 20010904//EN"
 "http://www.w3.org/TR/2001/REC-SVG-20010904/DTD/svg10.dtd">
<svg version="1.0" xmlns="http://www.w3.org/2000/svg"
 width="174.000000pt" height="174.000000pt" viewBox="0 0 174.000000 174.000000"
 preserveAspectRatio="xMidYMid meet">
<metadata>
Created by potrace 1.14, written by Peter Selinger 2001-2017
</metadata>
<g transform="translate(0.000000,174.000000) scale(0.100000,-0.100000)"
fill="#000000" stroke="none">
<path d="M24 1573 c2 -10 10 -38 16 -63 42 -168 137 -339 255 -456 98 -97 264
-198 375 -226 88 -23 160 -37 197 -39 l41 -3 -3 -65 c-2 -36 -6 -149 -10 -251
-4 -102 -8 -215 -10 -252 -2 -60 -1 -67 19 -72 57 -15 130 4 122 33 -4 15 -11
46 -20 96 -2 11 -7 52 -11 90 -3 39 -8 86 -10 105 -4 32 -7 78 -20 253 l-5 67
43 1 c47 1 78 5 157 20 257 51 458 193 547 389 34 73 37 90 16 91 -40 2 -181
-2 -228 -7 -55 -5 -210 -42 -234 -54 -9 -5 -43 -21 -76 -37 -113 -54 -222
-189 -244 -305 -8 -40 -9 -41 -10 -10 -1 19 -13 68 -27 110 -32 96 -63 152
-132 237 -9 11 -120 110 -137 123 -112 83 -305 166 -500 217 -105 27 -117 28
-111 8z m292 -214 c147 -106 328 -251 384 -308 56 -57 100 -109 80 -95 -23 17
-272 215 -286 228 -7 6 -27 22 -45 36 -48 37 -167 135 -228 188 -29 26 -57 49
-62 50 -5 2 -9 8 -9 14 0 5 12 0 28 -11 15 -12 77 -58 138 -102z m1254 -154
c0 -7 -341 -225 -445 -284 -36 -21 -37 -21 -15 -2 59 49 300 208 374 247 90
48 86 46 86 39z"/>
</g>
</svg>
